<?xml version="1.0" encoding="UTF-8" standalone="no"?>
<svg
   width="490"
   height="170"
   version="1.1"
   viewBox="0 0 129.65 44.979"
   xml:space="preserve"
   id="svg39"
   sodipodi:docname="qemupi-logo.svg"
   inkscape:version="1.2.2 (1:1.2.2+202212051552+b0a8486541)"
   xmlns:inkscape="http://www.inkscape.org/namespaces/inkscape"
   xmlns:sodipodi="http://sodipodi.sourceforge.net/DTD/sodipodi-0.dtd"
   xmlns="http://www.w3.org/2000/svg"
   xmlns:svg="http://www.w3.org/2000/svg"><sodipodi:namedview
     id="namedview41"
     pagecolor="#505050"
     bordercolor="#ffffff"
     borderopacity="1"
     inkscape:showpageshadow="0"
     inkscape:pageopacity="0"
     inkscape:pagecheckerboard="1"
     inkscape:deskcolor="#505050"
     showgrid="false"
     inkscape:zoom="1.2428571"
     inkscape:cx="319.42529"
     inkscape:cy="65.574713"
     inkscape:window-width="1360"
     inkscape:window-height="704"
     inkscape:window-x="0"
     inkscape:window-y="27"
     inkscape:window-maximized="1"
     inkscape:current-layer="svg39" /><defs
     id="defs7"><linearGradient
       id="linearGradient15378"
       x1="-128.09"
       x2="-128.09"
       y1="-7.6119"
       y2="12.494"
       gradientTransform="matrix(1.0024 0 0 1.007 117.64 18.077)"
       gradientUnits="userSpaceOnUse"><stop
         stop-color="#75a928"
         offset=".22672"
         id="stop2" /><stop
         stop-color="#5d861f"
         stop-opacity=".35792"
         offset="1"
         id="stop4" /></linearGradient></defs><g
     transform="translate(31.075 3.1693)"
     id="g37"><path
       id="rect9"
       transform="matrix(1 0 .35947 .93316 0 0)"
       style="stroke-width:0.28756"
       d="m -20.222,34.386002 h 6.3098 v 10.418999 h -6.3098 z" /><g
       transform="matrix(.1477 0 0 .13758 -29.45 -3.1694)"
       id="g17"><path
         d="m69.298 5e-3c-1.653 0.051-3.433 0.662-5.453 2.255-4.945-1.907-9.743-2.57-14.032 1.313-6.623-0.859-8.775 0.914-10.406 2.984-1.454-0.03-10.879-1.495-15.202 4.953-10.862-1.285-14.295 6.389-10.405 13.546-2.219 3.434-4.518 6.827 0.67 13.375-1.835 3.646-0.697 7.602 3.626 12.389-1.14 5.127 1.102 8.743 5.125 11.562-0.753 7.015 6.433 11.094 8.578 12.547 0.824 4.087 2.541 7.945 10.748 10.077 1.354 6.092 6.286 7.144 11.063 8.422-15.787 9.177-29.325 21.25-29.233 50.875l-2.313 4.125c-18.102 11.008-34.388 46.39-8.92 75.148 1.663 9.002 4.453 15.468 6.937 22.624 3.715 28.836 27.962 42.339 34.358 43.936 9.371 7.138 19.352 13.911 32.86 18.656 12.731 13.131 26.525 18.136 40.394 18.128 0.204 0 28.277-4.996 41.01-18.128 13.506-4.745 23.487-11.518 32.86-18.656 6.394-1.597 30.641-15.1 34.356-43.936 2.484-7.156 5.274-13.622 6.938-22.624 25.466-28.761 9.181-64.144-8.92-75.152l-2.317-4.125c0.092-29.622-13.446-41.696-29.233-50.875 4.776-1.278 9.71-2.33 11.062-8.422 8.207-2.133 9.925-5.99 10.748-10.077 2.146-1.453 9.331-5.532 8.58-12.547 4.021-2.819 6.264-6.436 5.123-11.562 4.324-4.787 5.461-8.743 3.626-12.39 5.19-6.544 2.887-9.937 0.671-13.371 3.888-7.157 0.457-14.832-10.409-13.546-4.32-6.448-13.744-4.984-15.202-4.954-1.63-2.069-3.782-3.842-10.405-2.983-4.289-3.883-9.085-3.221-14.032-1.313-5.874-4.635-9.76-0.92-14.2 0.485-7.112-2.324-8.739 0.859-12.233 2.156-7.756-1.639-10.113 1.929-13.83 5.695l-4.326-0.086c-11.698 6.894-17.51 20.932-19.57 28.149-2.06-7.218-7.859-21.256-19.555-28.149l-4.325 0.086c-3.723-3.766-6.079-7.334-13.835-5.695-3.495-1.297-5.115-4.48-12.233-2.156-2.914-0.922-5.594-2.838-8.749-2.74l-80.293 141"
         id="path11" /><path
         d="m46.008 30.334c31.036 16.001 49.079 28.945 58.964 39.969-5.062 20.289-31.47 21.215-41.126 20.646 1.977-0.92 3.627-2.023 4.212-3.716-2.423-1.722-11.014-0.182-17.012-3.551 2.304-0.478 3.382-0.943 4.459-2.643-5.666-1.807-11.77-3.365-15.36-6.359 1.937 0.024 3.746 0.434 6.276-1.321-5.075-2.735-10.491-4.903-14.699-9.084 2.624-0.064 5.453-0.026 6.276-0.991-4.645-2.878-8.565-6.078-11.809-9.579 3.672 0.443 5.223 0.062 6.111-0.578-3.512-3.597-7.956-6.634-10.075-11.066 2.726 0.94 5.221 1.3 7.019-0.082-1.193-2.692-6.305-4.28-9.249-10.571 2.871 0.279 5.915 0.626 6.524 0-1.332-5.428-3.618-8.48-5.86-11.642 6.143-0.091 15.451 0.024 15.03-0.495l-3.799-3.881c6.001-1.616 12.141 0.259 16.599 1.651 2.001-1.579-0.036-3.576-2.478-5.615 5.1 0.681 9.708 1.853 13.874 3.468 2.225-2.009-1.445-4.019-3.221-6.028 7.879 1.494 11.217 3.595 14.534 5.698 2.407-2.307 0.138-4.268-1.486-6.276 5.941 2.2 9.001 5.041 12.222 7.845 1.092-1.474 2.775-2.555 0.743-6.111 4.218 2.431 7.395 5.296 9.745 8.506 2.61-1.662 1.555-3.934 1.569-6.029 4.384 3.566 7.166 7.361 10.571 11.066 0.686-0.5 1.286-2.193 1.817-4.872 10.457 10.145 25.234 35.7 3.798 45.832-18.243-15.046-40.031-25.983-64.176-34.187l7e-3 -4e-3m164.68 0c-31.032 16.003-49.075 28.943-58.959 39.969 5.062 20.289 31.469 21.215 41.125 20.646-1.977-0.92-3.627-2.023-4.211-3.716 2.423-1.722 11.014-0.182 17.011-3.551-2.304-0.478-3.381-0.943-4.459-2.643 5.667-1.807 11.771-3.365 15.36-6.359-1.937 0.024-3.746 0.434-6.276-1.321 5.076-2.735 10.492-4.903 14.7-9.084-2.625-0.064-5.454-0.026-6.276-0.991 4.645-2.878 8.565-6.078 11.809-9.579-3.673 0.443-5.223 0.062-6.111-0.578 3.511-3.597 7.956-6.634 10.075-11.066-2.727 0.94-5.222 1.3-7.02-0.082 1.193-2.692 6.306-4.28 9.249-10.571-2.87 0.279-5.915 0.626-6.524 0 1.335-5.43 3.621-8.482 5.863-11.644-6.143-0.091-15.451 0.024-15.03-0.495l3.799-3.882c-6.001-1.615-12.141 0.26-16.599 1.652-2.001-1.579 0.035-3.576 2.477-5.615-5.099 0.68-9.708 1.853-13.873 3.468-2.226-2.009 1.445-4.019 3.221-6.028-7.879 1.494-11.217 3.595-14.535 5.698-2.407-2.307-0.137-4.268 1.487-6.276-5.941 2.2-9.001 5.041-12.222 7.845-1.093-1.474-2.775-2.555-0.744-6.111-4.217 2.431-7.394 5.296-9.744 8.506-2.61-1.662-1.555-3.935-1.569-6.029-4.384 3.566-7.166 7.36-10.571 11.066-0.686-0.5-1.286-2.193-1.817-4.873-10.457 10.146-25.234 35.701-3.798 45.833 18.233-15.05 40.02-25.985 64.166-34.189h-4e-3"
         fill="#75a928"
         id="path13" /><path
         d="m165.93 236.93c0.108 18.933-16.449 34.362-36.98 34.461-20.532 0.1-37.264-15.167-37.372-34.1a21.72 21.72 0 0 1 0-0.361c-0.108-18.932 16.448-34.361 36.98-34.461s37.263 15.167 37.372 34.1v0.361m-58.687-97.929c15.404 10.093 18.181 32.969 6.202 51.095-11.979 18.127-34.177 24.641-49.581 14.549-15.404-10.093-18.18-32.969-6.202-51.095 11.979-18.127 34.177-24.641 49.581-14.549m41.576-1.827c-15.403 10.092-18.18 32.969-6.202 51.095 11.979 18.127 34.177 24.641 49.581 14.548 15.404-10.092 18.181-32.968 6.202-51.095-11.978-18.126-34.176-24.64-49.581-14.548m-118.56 18.327c16.631-4.458 5.615 68.803-7.917 62.792-14.885-11.972-19.679-47.033 7.917-62.792m192.2-0.913c-16.633-4.457-5.615 68.807 7.917 62.796 14.885-11.973 19.679-47.038-7.917-62.796m-56.507-54.557c28.701-4.846 52.583 12.206 51.619 43.328-0.944 11.932-62.193-41.551-51.619-43.328m-79.3-0.913c-28.703-4.847-52.583 12.209-51.619 43.329 0.944 11.931 62.194-41.552 51.619-43.329m41.228-7.258c-17.13-0.446-33.57 12.713-33.61 20.346-0.047 9.274 13.544 18.77 33.727 19.011 20.61 0.147 33.762-7.601 33.828-17.172 0.076-10.844-18.745-22.353-33.945-22.186v1e-3m1.046 190.18c14.935-0.652 34.975 4.81 35.015 12.057 0.248 7.036-18.175 22.934-36.005 22.627-18.466 0.797-36.573-15.126-36.336-20.645-0.277-8.092 22.484-14.41 37.326-14.039m-55.164-42.945c10.633 12.81 15.481 35.316 6.607 41.951-8.395 5.065-28.782 2.979-43.272-17.838-9.773-17.468-8.514-35.243-1.652-40.465 10.261-6.25 26.115 2.193 38.318 16.352h-1e-3m108.2-4.061c-11.505 13.475-17.911 38.053-9.519 45.969 8.025 6.15 29.567 5.29 45.479-16.789 11.554-14.829 7.683-39.594 1.083-46.17-9.804-7.583-23.879 2.122-37.043 16.986v4e-3"
         fill="#bc1142"
         id="path15" /></g><path
       id="ellipse19"
       style="fill:url(#linearGradient15378);stroke-width:0.33782"
       d="M 0.84700012,20.535 A 11.606,10.124 0 0 1 -10.759,30.658999 11.606,10.124 0 0 1 -22.365,20.535 11.606,10.124 0 0 1 -10.759,10.411 11.606,10.124 0 0 1 0.84700012,20.535 Z" /><g
       transform="matrix(1.0024 0 0 1.007 109.58 14.479)"
       id="g27"><path
         d="m-121.94-2.01c1.4723-0.016093 3.0249 0.41745 4.2347 1.2568 0.96878 0.67212 1.2032 2.0952 2.1301 2.8241 0.89054 0.70034 2.1179 0.81977 3.1195 1.3493 0.47514 0.2512 1.0288 0.44106 1.3623 0.86253 0.27327 0.34535 0.45141 0.83772 0.43119 1.2488-5e-3 0.10706-0.48197-0.15834-0.73239-0.18298-0.42628-0.04195-0.85526 0.05342-1.2835 0.06247-1.1421 0.02413-2.3074-0.24867-3.427-0.0219-1.8114 0.36689-3.8602 0.81366-5.0936 2.1901-0.8684 0.9692-1.2622 2.4083-1.1406 3.7337 0.19615 2.1374 0.85458 4.0392 1.6203 6.2319 0.80185 2.2961 1.0554 4.2764 1.2405 6.6436 0.0828 1.0591-1.6602-2.7332-2.566-4.0499-1.0662-1.5499-2.166-3.0819-3.3723-4.5255-1.1274-1.3491-2.6846-2.7145-3.6021-3.8529-0.4082-0.50646-0.58517-3.4969-0.28498-5.2101 0.4485-2.5596 1.1277-5.4237 3.047-7.1755 1.1161-1.0187 2.8057-1.368 4.3167-1.3845z"
         fill="#f60"
         stroke-width=".254"
         id="path21" /><path
         id="ellipse23"
         transform="matrix(.93407 .35708 -.28365 .95893 0 0)"
         style="stroke-width:0.25143"
         d="m -112.5429,43.925999 a 1.5871,0.88756001 0 0 1 -1.5871,0.88756 1.5871,0.88756001 0 0 1 -1.5871,-0.88756 1.5871,0.88756001 0 0 1 1.5871,-0.88756 1.5871,0.88756001 0 0 1 1.5871,0.88756 z" /><path
         d="m-121.07 2.8983c0.85786-0.023379 3.0191 0.075021 4.5112 0.2844 0.63515 0.089129 1.2636 0.23327 1.8795 0.41215 0.51543 0.14969 1.0237 0.33679 1.5129 0.55127 0.6268 0.27481 1.8338 0.69195 1.9452 1.0789 0.0681 0.23645-0.057 0.17209-0.33985 0.018777-0.38194-0.20699-1.2852-0.41489-1.7506-0.57586-1.0063-0.34801-2.1912-0.6693-3.3056-0.93064-1.4705-0.34482-5.4629-0.81148-4.4527-0.83901z"
         stroke-width=".254"
         id="path25" /></g><g
       aria-label="EMU"
       transform="scale(1.0533 .94943)"
       id="text31"
       style="font-weight:bold;font-size:28.935px;font-family:Arial;letter-spacing:-1.2px;stroke-width:0.1929"><path
         d="M 9.067714,38.26675 V 17.55449 h 15.35759 v 3.503848 H 13.249726 v 4.591735 h 10.398515 v 3.489719 H 13.249726 v 5.637239 H 24.8209 v 3.489719 z"
         id="path327" /><path
         d="M 27.110619,38.26675 V 17.55449 h 6.258889 l 3.758159,14.128418 3.715774,-14.128418 h 6.273017 V 38.26675 H 43.231144 V 21.962556 L 39.119774,38.26675 H 35.093175 L 30.995934,21.962556 V 38.26675 Z"
         id="path329" /><path
         d="m 50.041956,17.55449 h 4.182011 v 11.217964 q 0,2.670271 0.155413,3.461462 0.26844,1.271558 1.271558,2.048621 1.017246,0.762934 2.769169,0.762934 1.780181,0 2.6844,-0.720549 0.904219,-0.734678 1.087888,-1.794309 0.183669,-1.059632 0.183669,-3.517976 V 17.55449 h 4.182012 v 10.878882 q 0,3.729902 -0.339082,5.269899 -0.339082,1.539998 -1.257429,2.599629 -0.904219,1.059632 -2.430088,1.69541 -1.525869,0.621651 -3.984214,0.621651 -2.966968,0 -4.506965,-0.678164 Q 52.514429,37.249504 51.624339,36.161616 50.734248,35.0596 50.45168,33.858684 50.041956,32.078503 50.041956,28.602913 Z"
         id="path331" /></g><g
       aria-label="PI"
       transform="scale(1.0077 .99236)"
       id="text35"
       style="font-weight:bold;font-size:28.155px;font-family:Arial;fill:#bc1142;stroke-width:0.1877"><path
         d="M 72.467545,36.949181 V 16.795259 h 6.530091 q 3.711841,0 4.83914,0.302447 1.732193,0.453669 2.900735,1.979648 1.168543,1.512231 1.168543,3.918054 0,1.855921 -0.67363,3.120696 -0.673631,1.264776 -1.718445,1.993396 -1.031067,0.714873 -2.103377,0.948582 -1.457241,0.288699 -4.2205,0.288699 h -2.653279 v 7.6024 z m 4.069278,-16.744527 v 5.718984 h 2.227104 q 2.405823,0 3.216929,-0.316194 0.811106,-0.316193 1.264775,-0.989824 0.467417,-0.67363 0.467417,-1.567221 0,-1.099805 -0.646135,-1.814678 -0.646135,-0.714873 -1.635959,-0.893592 -0.728621,-0.137475 -2.92823,-0.137475 z"
         id="path334" /><path
         d="M 91.122982,36.949181 V 16.795259 h 4.069278 v 20.153922 z"
         id="path336" /></g></g></svg>
